<?xml version="1.0"?>
<svg xmlns="http://www.w3.org/2000/svg" version="1.2" baseProfile="tiny" width="800" height="591" viewBox="0 0 800 591" stroke-linecap="round" stroke-linejoin="round">
<g id="poly">
<path d="M 694.28 420.68 683.31 412.82 679.25 430.32 659.88 437.28 650.69 437.69 650.8 434.68 649.35 437.89 627.66 430.64 620.12 408.05 606.09 414.64 579 369.1 569.76 367.54 545.47 340.69 549.68 335.58 541.39 318.82 538.92 301.64 545.2 275.5 561.03 284.29 558.22 287.64 562.21 291.67 560.85 298.69 572.06 304.74 578.35 298.83 581.33 300.95 581.55 313.68 599.42 327.85 607.82 307.03 621.42 292.31 664.89 274.79 677.54 281.94 677.82 313.74 694.22 379.04 697.78 381.91 694.28 420.68 Z" stroke="yellow" fill="black" stroke-width="1" id="relation/1763725"/>
<path d="M 694.28 420.68 697.78 381.91 694.22 379.04 677.82 313.74 677.54 281.94 664.89 274.79 718.75 200.97 739.92 174.24 744.9 159.21 741.85 146.71 734.67 141.52 694.78 132.29 680.5 123.77 667.87 97.86 667.21 76.79 670.68 70.47 663.22 48.86 672.89 68.85 744.46 109.77 766.86 130.43 756.15 136.54 765.01 159.96 778.6 181.81 775.6 227.62 741.94 311.04 792.93 432.25 789.92 435.38 792.59 434.93 799 449.39 782.96 462.78 768.64 469 750.85 467.76 740.06 462.35 694.28 420.68 Z" stroke="yellow" fill="black" stroke-width="1" id="relation/1763762"/>
<path d="M 606.09 414.64 607.1 418.26 597.92 425.72 595.58 422.91 593.56 433.44 584.58 440.33 575.38 461.88 565.15 473.91 537.39 442.22 520.23 440.19 501.17 435.64 487.24 423.92 500.39 397.23 503.73 375.42 519.6 369.29 514.08 361.31 536.29 369.86 541.76 365.57 537.2 360.93 540.32 356.81 529.85 346.68 533.07 343.12 526.86 329.46 545.47 340.69 569.76 367.54 579 369.1 606.09 414.64 Z" stroke="yellow" fill="black" stroke-width="1" id="relation/2642940"/>
<path d="M 629.49 136.9 620.36 145.36 586.99 209.7 533.28 164.19 522.41 164.42 524.91 145.14 503.89 119.67 491.19 111.38 525.82 71.87 502.42 55.64 505.83 48.44 537.7 72.04 577.58 94.11 598.82 102.01 627.68 104.83 625.12 117.92 614.04 123.12 629.49 136.9 Z" stroke="yellow" fill="black" stroke-width="1" id="relation/2642941"/>
<path d="M 238.03 472.54 238.97 463.85 214.49 444.96 212.93 437.62 201.92 426.9 202.47 420.3 193.65 406.22 186.41 405.75 166.3 415.67 136.27 372.41 141.51 367.32 148.87 366.78 143.07 344.62 133.62 344.42 138.49 319.88 156.38 320.12 156.24 303.74 180.13 302.31 178.54 296.05 198.6 288.77 217.75 287.63 244.94 295.99 266.23 289.46 283.5 299.94 295.1 295.62 303.39 300.56 324.92 301.19 319 320.79 322.9 317.08 322.78 331.34 333.2 358.47 332.85 390.24 329.15 400.52 331.53 406.98 325.37 412.09 322.78 445.31 313.27 447.13 313.18 452.09 297.79 444.42 264.14 457 238.03 472.54 Z" stroke="yellow" fill="black" stroke-width="1" id="relation/2642942"/>
<path d="M 718.75 200.97 664.89 274.79 621.42 292.31 607.82 307.03 599.42 327.85 581.55 313.68 581.33 300.95 578.35 298.83 572.06 304.74 560.85 298.69 562.21 291.67 558.22 287.64 561.03 284.29 545.2 275.5 586.99 209.7 620.36 145.36 629.49 136.9 637.86 134.8 641.91 138.81 638.15 139.52 635.32 153.06 656.21 160.73 662.04 201.23 659.58 204.28 670.93 213.59 674.93 214.26 701.97 196.8 718.75 200.97 Z" stroke="yellow" fill="black" stroke-width="1" id="relation/2642947"/>
<path d="M 156.24 303.74 129.01 303.13 124.21 291.19 95.42 294.24 86.7 300.63 8.17 217.08 9.03 210 1 201.44 16.73 190.93 17.44 179.55 43.17 169.22 46.64 162.61 44.67 151.37 48.98 151.89 51.95 146.56 46.71 114.13 74.23 116.06 75.92 119.42 76.77 112.92 82.98 111.91 83.3 96.04 92.17 84.54 89.61 64.79 100.7 56.63 79.15 52.07 84.28 36.93 86.56 13.17 77.62 10.98 96.09 13.58 106.8 18.65 149.45 4.71 200.52 15.64 214.21 9.28 227.99 9.79 265.56 28.4 272.94 6.13 282.95 10.58 288.51 1 305.4 1.2 316.78 57.97 328.31 121.11 343.04 157.42 368.99 193.13 380.13 207.34 372.74 211.41 358.12 211.53 345.32 220.04 318.47 189.5 290.84 199.64 275.1 217.7 275.78 223.24 287.31 227.32 301.67 223.81 293.28 234.59 274.07 232.69 262.58 226.63 264.62 215.78 254.73 211.38 240.55 219.53 225.1 215.09 208.9 227.26 226.07 254.35 204.62 256.55 205.24 267.59 217.75 274.65 200.4 281.48 198.6 288.77 178.54 296.05 180.13 302.31 156.24 303.74 Z" stroke="yellow" fill="black" stroke-width="1" id="relation/2642950"/>
<path d="M 398.81 477.8 396.05 472.34 391.52 473.84 400.85 489.52 392.47 504.66 407.28 520.94 405.48 526.42 393.63 528.42 379.54 513.01 365 523.21 358.05 523.63 358.37 515.43 349.68 515.82 345.28 521.57 332.52 526.61 330.75 523.28 329.82 527.69 310.51 516.93 308.12 528.7 282.73 527.57 277.5 521.54 261.67 517.38 247.34 498.99 247.59 491.48 241.33 485.01 238.03 472.54 264.14 457 297.79 444.42 313.18 452.09 313.27 447.13 322.78 445.31 325.37 412.09 331.53 406.98 329.15 400.52 332.85 390.24 334.49 395.15 350.23 402.88 360.43 400.39 372.04 391.02 382.75 393.42 379.18 411.49 389.28 403.44 402.46 412.58 404.82 418.68 411.68 416.93 410.74 408.03 418.36 393.62 424.61 395.41 460.05 418.14 468.13 414.52 460.38 428.7 445.18 428.02 427.43 445.68 422.12 444.8 409.22 461.28 414.88 471.78 398.81 477.8 Z" stroke="yellow" fill="black" stroke-width="1" id="relation/2642954"/>
<path d="M 385.79 52.97 391.84 99.63 385.48 98.78 402.3 159.15 403.3 167.86 368.99 193.13 343.04 157.42 328.31 121.11 316.78 57.97 336.42 47.5 339.23 50.24 370.13 44.57 373.85 36.2 377.84 37.26 385.79 52.97 Z" stroke="yellow" fill="black" stroke-width="1" id="relation/2642955"/>
<path d="M 402.3 159.15 385.48 98.78 391.84 99.63 385.79 52.97 423.53 36.98 431.81 27.18 453.02 43.93 470.16 21.43 505.83 48.44 502.42 55.64 525.82 71.87 491.19 111.38 412.83 165.08 405.74 156.68 402.3 159.15 Z" stroke="yellow" fill="black" stroke-width="1" id="relation/2642956"/>
<path d="M 407.28 520.94 392.47 504.66 400.85 489.52 391.52 473.84 396.05 472.34 398.81 477.8 401.46 485.82 408.43 491.42 441.12 501.53 449.04 508.39 456.87 504.33 449.41 497.01 451.29 495.26 445.82 494.34 441.56 482.98 454.3 479.59 453.11 488.12 462.53 497.57 469.37 495.91 471.29 481.74 482.26 479.95 494.83 465.27 508.1 457.73 517.05 460.3 516.82 455.72 520.49 455.81 517.77 446.38 520.23 440.19 537.39 442.22 565.15 473.91 578.34 487.26 576.89 497.66 567.04 510.52 559.17 514.39 554.78 523.24 545.71 527.43 507.79 529.86 502 533.58 493.78 517.99 483.17 518.24 483.07 514.64 476.31 514.2 475.48 517.4 474.92 515.02 456.4 519.09 458.69 524.32 447.57 528.52 445.04 533.48 447.85 540.33 446 548.49 439.99 553.11 438.5 564.55 407.28 520.94 Z" stroke="yellow" fill="black" stroke-width="1" id="relation/2642957"/>
<path d="M 345.32 220.04 358.12 211.53 372.74 211.41 380.13 207.34 404.14 234.36 400.79 237.77 405.27 243.53 400.63 248.77 407.11 256.44 379.37 282.29 375.79 278.2 372.1 283.39 362.15 282.33 355.01 296.96 351.11 298.36 347.39 282.87 336.75 278 339.91 265.21 338.4 233.23 345.32 220.04 Z" stroke="yellow" fill="black" stroke-width="1" id="relation/2642959"/>
<path d="M 520.23 440.19 517.77 446.38 520.49 455.81 516.82 455.72 517.05 460.3 508.1 457.73 494.83 465.27 482.26 479.95 471.29 481.74 469.37 495.91 462.53 497.57 453.11 488.12 454.3 479.59 441.56 482.98 445.82 494.34 451.29 495.26 449.41 497.01 456.87 504.33 449.04 508.39 441.12 501.53 408.43 491.42 401.46 485.82 398.81 477.8 414.88 471.78 409.22 461.28 422.12 444.8 427.43 445.68 445.18 428.02 460.38 428.7 460.95 434.67 473.81 440.07 481.12 426.82 487.24 423.92 501.17 435.64 520.23 440.19 Z" stroke="yellow" fill="black" stroke-width="1" id="relation/2642960"/>
<path d="M 336.75 278 324.92 301.19 303.39 300.56 295.1 295.62 283.5 299.94 266.23 289.46 244.94 295.99 217.75 287.63 198.6 288.77 200.4 281.48 217.75 274.65 205.24 267.59 204.62 256.55 226.07 254.35 208.9 227.26 225.1 215.09 240.55 219.53 254.73 211.38 264.62 215.78 262.58 226.63 274.07 232.69 293.28 234.59 301.67 223.81 287.31 227.32 275.78 223.24 275.1 217.7 290.84 199.64 318.47 189.5 345.32 220.04 338.4 233.23 339.91 265.21 336.75 278 Z" stroke="yellow" fill="black" stroke-width="1" id="relation/2642962"/>
<path d="M 424.88 259.01 467.5 238.35 498.79 227.85 499.04 224.71 490.96 225.57 492 220.73 499.5 218.42 503.48 180.71 496.87 171.16 503.48 166.84 506.49 169.51 516.95 161.89 522.41 164.42 533.28 164.19 586.99 209.7 545.2 275.5 538.92 301.64 541.39 318.82 549.68 335.58 545.47 340.69 526.86 329.46 453.52 285.2 424.88 259.01 Z" stroke="yellow" fill="black" stroke-width="1" id="relation/2642963"/>
<path d="M 460.38 428.7 468.13 414.52 460.05 418.14 424.61 395.41 418.36 393.62 410.74 408.03 411.68 416.93 404.82 418.68 402.46 412.58 389.28 403.44 379.18 411.49 382.75 393.42 372.04 391.02 360.43 400.39 350.23 402.88 334.49 395.15 332.85 390.24 333.2 358.47 322.78 331.34 322.9 317.08 319 320.79 324.92 301.19 336.75 278 347.39 282.87 351.11 298.36 355.01 296.96 362.15 282.33 372.1 283.39 375.79 278.2 379.37 282.29 407.11 256.44 400.63 248.77 409.38 247.08 421.05 260.9 424.88 259.01 453.52 285.2 526.86 329.46 533.07 343.12 529.85 346.68 540.32 356.81 537.2 360.93 541.76 365.57 536.29 369.86 514.08 361.31 519.6 369.29 503.73 375.42 500.39 397.23 487.24 423.92 481.12 426.82 473.81 440.07 460.95 434.67 460.38 428.7 Z" stroke="yellow" fill="black" stroke-width="1" id="relation/2642964"/>
<path d="M 380.13 207.34 368.99 193.13 403.3 167.86 422.83 183.71 438.55 205.3 453.6 215.75 467.5 238.35 424.88 259.01 421.05 260.9 409.38 247.08 400.63 248.77 405.27 243.53 400.79 237.77 404.14 234.36 380.13 207.34 Z" stroke="yellow" fill="black" stroke-width="1" id="relation/2642967"/>
<path d="M 522.41 164.42 516.95 161.89 506.49 169.51 503.48 166.84 496.87 171.16 503.48 180.71 499.5 218.42 492 220.73 490.96 225.57 499.04 224.71 498.79 227.85 467.5 238.35 453.6 215.75 438.55 205.3 422.83 183.71 403.3 167.86 402.3 159.15 405.74 156.68 412.83 165.08 491.19 111.38 503.89 119.67 524.91 145.14 522.41 164.42 Z" stroke="yellow" fill="black" stroke-width="1" id="relation/2642968"/>
<path d="M 740.06 462.35 737.51 470.73 740.92 472.72 730.45 494.03 737.46 522.59 715.31 536.56 715.55 544.26 700.94 550.52 701.3 559.95 688.57 561.73 686.05 575.23 673.56 572.86 667.3 584.86 655.9 579.79 645.88 589.71 640.01 584.77 634.16 588.01 636.9 573.84 623.6 579.08 621.07 572.51 623.49 566.84 617.52 575.6 615.84 570.13 603.41 566.68 606.18 546.36 601.82 545.41 595.69 555.74 590.83 556.87 594.36 546.77 589.91 548.61 594.32 539.12 574.13 528.15 586.88 516.57 581.24 518.65 582.39 498.44 576.89 497.66 578.34 487.26 565.15 473.91 575.38 461.88 584.58 440.33 593.56 433.44 595.58 422.91 597.92 425.72 607.1 418.26 606.09 414.64 620.12 408.05 627.66 430.64 649.35 437.89 650.8 434.68 650.69 437.69 659.88 437.28 679.25 430.32 683.31 412.82 694.28 420.68 740.06 462.35 Z" stroke="yellow" fill="black" stroke-width="1" id="relation/2642969"/>
</g>
<g id="points" font-family="sans-serif" font-size="12" text-anchor="middle">
<g transform="translate(305.7 336.1)" id="node/2905306265">
<circle cx="0" cy="0" r="1.5" fill="white"/>
<text y="5" x="0" font-size="3" fill="white">Brętowo</text>
</g>
<g transform="translate(761.2 447.3)" id="node/2905317097">
<circle cx="0" cy="0" r="1.5" fill="white"/>
<text y="5" x="0" font-size="3" fill="white">Przeróbka</text>
</g>
<g transform="translate(547.2 387.3)" id="node/2905330775">
<circle cx="0" cy="0" r="1.5" fill="white"/>
<text y="5" x="0" font-size="3" fill="white">Aniołki</text>
</g>
<g transform="translate(554.8 128.9)" id="node/2905330776">
<circle cx="0" cy="0" r="1.5" fill="white"/>
<text y="5" x="0" font-size="3" fill="white">Brzeźno</text>
</g>
<g transform="translate(559 315.9)" id="node/2905330779">
<circle cx="0" cy="0" r="1.5" fill="white"/>
<text y="5" x="0" font-size="3" fill="white">Młyniska</text>
</g>
<g transform="translate(365.7 249.7)" id="node/2905330782">
<circle cx="0" cy="0" r="1.5" fill="white"/>
<text y="5" x="0" font-size="3" fill="white">Strzyża</text>
</g>
<g transform="translate(461.7 311.6)" id="node/2905330784">
<circle cx="0" cy="0" r="1.5" fill="white"/>
<text y="5" x="0" font-size="3" fill="white">Wrzeszcz Górny</text>
</g>
<g transform="translate(461 459.8)" id="node/2905343304">
<circle cx="0" cy="0" r="1.5" fill="white"/>
<text y="5" x="0" font-size="3" fill="white">Suchanino</text>
</g>
<g transform="translate(263.3 102.3)" id="node/2906217575">
<circle cx="0" cy="0" r="1.5" fill="white"/>
<text y="5" x="0" font-size="3" fill="white">Oliwa</text>
</g>
<g transform="translate(366.9 99.7)" id="node/2906217576">
<circle cx="0" cy="0" r="1.5" fill="white"/>
<text y="5" x="0" font-size="3" fill="white">Przymorze Małe</text>
</g>
<g transform="translate(319.6 242.2)" id="node/2908238053">
<circle cx="0" cy="0" r="1.5" fill="white"/>
<text y="5" x="0" font-size="3" fill="white">VII Dwór</text>
</g>
<g transform="translate(422.6 215.7)" id="node/2911352904">
<circle cx="0" cy="0" r="1.5" fill="white"/>
<text y="5" x="0" font-size="3" fill="white">Zaspa-Młyniec</text>
</g>
<g transform="translate(646.2 497.5)" id="node/3009670215">
<circle cx="0" cy="0" r="1.5" fill="white"/>
<text y="5" x="0" font-size="3" fill="white">Śródmieście</text>
</g>
<g transform="translate(355.3 446)" id="node/4569227409">
<circle cx="0" cy="0" r="1.5" fill="white"/>
<text y="5" x="0" font-size="3" fill="white">Piecki-Migowo</text>
</g>
<g transform="translate(426 97.3)" id="node/4569252042">
<circle cx="0" cy="0" r="1.5" fill="white"/>
<text y="5" x="0" font-size="3" fill="white">Przymorze Wielkie</text>
</g>
<g transform="translate(492.2 276.2)" id="node/4569274473">
<circle cx="0" cy="0" r="1.5" fill="white"/>
<text y="5" x="0" font-size="3" fill="white">Wrzeszcz Dolny</text>
</g>
<g transform="translate(462.1 169.3)" id="node/4569270544">
<circle cx="0" cy="0" r="1.5" fill="white"/>
<text y="5" x="0" font-size="3" fill="white">Zaspa-Rozstaje</text>
</g>
<g transform="translate(470.7 297.3)" id="lang">
<circle cx="0" cy="0" r="1.5" fill="white"/>
<text y="5" x="0" font-size="3" fill="white">LangFuhr</text>
</g>
<g transform="translate(627.7 496.2)" id="jozefk">
<circle cx="0" cy="0" r="1.5" fill="white"/>
<text y="5" x="0" font-size="3" fill="white">Józef K</text>
</g>
</g>
</svg>