<?xml version="1.0"?>
<svg xmlns="http://www.w3.org/2000/svg" version="1.2" baseProfile="tiny" width="800" height="345" viewBox="0 0 800 345" stroke-linecap="round" stroke-linejoin="round">
<g id="poly">
<path d="M 694.28 245.35 683.31 240.77 679.25 250.96 659.88 255.02 650.69 255.26 650.8 253.51 649.35 255.38 627.66 251.15 620.12 237.99 606.09 241.83 579 215.3 569.76 214.39 545.47 198.75 549.68 195.77 541.39 186.01 538.92 176 545.2 160.78 561.03 165.9 558.22 167.85 562.21 170.2 560.85 174.28 572.06 177.81 578.35 174.37 581.33 175.6 581.55 183.01 599.42 191.27 607.82 179.14 621.42 170.57 664.89 160.37 677.54 164.53 677.82 183.05 694.22 221.09 697.78 222.76 694.28 245.35 Z" stroke="yellow" fill="black" stroke-width="1" id="relation/1763725"/>
<path d="M 694.28 245.35 697.78 222.76 694.22 221.09 677.82 183.05 677.54 164.53 664.89 160.37 718.75 117.38 739.92 101.82 744.9 93.07 741.85 85.79 734.67 82.77 694.78 77.4 680.5 72.44 667.87 57.36 667.21 45.1 670.68 41.42 663.22 28.85 672.89 40.48 744.46 64.29 766.86 76.32 756.15 79.88 765.01 93.51 778.6 106.23 775.6 132.9 741.94 181.48 792.93 252.09 789.92 253.91 792.59 253.65 799 262.08 782.96 269.88 768.64 273.51 750.85 272.78 740.06 269.63 694.28 245.35 Z" stroke="yellow" fill="black" stroke-width="1" id="relation/1763762"/>
<path d="M 606.09 241.83 607.1 243.94 597.92 248.28 595.58 246.65 593.56 252.78 584.58 256.8 575.38 269.36 565.15 276.37 537.39 257.9 520.23 256.72 501.17 254.06 487.24 247.24 500.39 231.69 503.73 218.98 519.6 215.41 514.08 210.76 536.29 215.74 541.76 213.24 537.2 210.54 540.32 208.14 529.85 202.23 533.07 200.16 526.86 192.2 545.47 198.75 569.76 214.39 579 215.3 606.09 241.83 Z" stroke="yellow" fill="black" stroke-width="1" id="relation/2642940"/>
<path d="M 629.49 80.09 620.36 85.01 586.99 122.46 533.28 95.97 522.41 96.11 524.91 84.88 503.89 70.05 491.19 65.23 525.82 42.24 502.42 32.79 505.83 28.6 537.7 42.34 577.58 55.18 598.82 59.78 627.68 61.42 625.12 69.04 614.04 72.07 629.49 80.09 Z" stroke="yellow" fill="black" stroke-width="1" id="relation/2642941"/>
<path d="M 238.03 275.57 238.97 270.5 214.49 259.5 212.93 255.22 201.92 248.97 202.47 245.13 193.65 236.92 186.41 236.65 166.3 242.43 136.27 217.22 141.51 214.26 148.87 213.95 143.07 201.04 133.62 200.92 138.49 186.63 156.38 186.77 156.24 177.23 180.13 176.39 178.54 172.75 198.6 168.5 217.75 167.84 244.94 172.71 266.23 168.91 283.5 175.02 295.1 172.5 303.39 175.38 324.92 175.74 319 187.16 322.9 185 322.78 193.3 333.2 209.11 332.85 227.61 329.15 233.6 331.53 237.37 325.37 240.35 322.78 259.7 313.27 260.76 313.18 263.65 297.79 259.18 264.14 266.51 238.03 275.57 Z" stroke="yellow" fill="black" stroke-width="1" id="relation/2642942"/>
<path d="M 718.75 117.38 664.89 160.37 621.42 170.57 607.82 179.14 599.42 191.27 581.55 183.01 581.33 175.6 578.35 174.37 572.06 177.81 560.85 174.28 562.21 170.2 558.22 167.85 561.03 165.9 545.2 160.78 586.99 122.46 620.36 85.01 629.49 80.09 637.86 78.86 641.91 81.2 638.15 81.61 635.32 89.49 656.21 93.95 662.04 117.53 659.58 119.31 670.93 124.73 674.93 125.12 701.97 114.96 718.75 117.38 Z" stroke="yellow" fill="black" stroke-width="1" id="relation/2642947"/>
<path d="M 156.24 177.23 129.01 176.87 124.21 169.92 95.42 171.69 86.7 175.41 8.17 126.76 9.03 122.64 1 117.66 16.73 111.54 17.44 104.91 43.17 98.9 46.64 95.05 44.67 88.51 48.98 88.81 51.95 85.71 46.71 66.83 74.23 67.95 75.92 69.91 76.77 66.13 82.98 65.54 83.3 56.3 92.17 49.61 89.61 38.11 100.7 33.37 79.15 30.72 84.28 21.91 86.56 8.08 77.62 6.81 96.09 8.32 106.8 11.27 149.45 3.16 200.52 9.52 214.21 5.82 227.99 6.12 265.56 16.94 272.94 3.99 282.95 6.58 288.51 1 305.4 1.11 316.78 34.15 328.31 70.89 343.04 92.03 368.99 112.82 380.13 121.09 372.74 123.46 358.12 123.53 345.32 128.48 318.47 110.71 290.84 116.61 275.1 127.12 275.78 130.35 287.31 132.73 301.67 130.68 293.28 136.96 274.07 135.85 262.58 132.32 264.62 126.01 254.73 123.44 240.55 128.19 225.1 125.6 208.9 132.69 226.07 148.46 204.62 149.75 205.24 156.17 217.75 160.28 200.4 164.26 198.6 168.5 178.54 172.75 180.13 176.39 156.24 177.23 Z" stroke="yellow" fill="black" stroke-width="1" id="relation/2642950"/>
<path d="M 398.81 278.64 396.05 275.45 391.52 276.33 400.85 285.46 392.47 294.29 407.28 303.78 405.48 306.97 393.63 308.14 379.54 299.16 365 305.1 358.05 305.35 358.37 300.57 349.68 300.8 345.28 304.15 332.52 307.08 330.75 305.14 329.82 307.71 310.51 301.44 308.12 308.3 282.73 307.64 277.5 304.13 261.67 301.7 247.34 290.98 247.59 286.61 241.33 282.84 238.03 275.57 264.14 266.51 297.79 259.18 313.18 263.65 313.27 260.76 322.78 259.7 325.37 240.35 331.53 237.37 329.15 233.6 332.85 227.61 334.49 230.48 350.23 234.98 360.43 233.53 372.04 228.07 382.75 229.47 379.18 240 389.28 235.3 402.46 240.63 404.82 244.19 411.68 243.16 410.74 237.98 418.36 229.58 424.61 230.63 460.05 243.87 468.13 241.76 460.38 250.02 445.18 249.63 427.43 259.91 422.12 259.4 409.22 269.01 414.88 275.13 398.81 278.64 Z" stroke="yellow" fill="black" stroke-width="1" id="relation/2642954"/>
<path d="M 385.79 31.24 391.84 58.39 385.48 57.89 402.3 93.04 403.3 98.11 368.99 112.82 343.04 92.03 328.31 70.89 316.78 34.15 336.42 28.05 339.23 29.65 370.13 26.35 373.85 21.48 377.84 22.1 385.79 31.24 Z" stroke="yellow" fill="black" stroke-width="1" id="relation/2642955"/>
<path d="M 402.3 93.04 385.48 57.89 391.84 58.39 385.79 31.24 423.53 21.94 431.81 16.23 453.02 25.98 470.16 12.89 505.83 28.6 502.42 32.79 525.82 42.24 491.19 65.23 412.83 96.49 405.74 91.6 402.3 93.04 Z" stroke="yellow" fill="black" stroke-width="1" id="relation/2642956"/>
<path d="M 407.28 303.78 392.47 294.29 400.85 285.46 391.52 276.33 396.05 275.45 398.81 278.64 401.46 283.31 408.43 286.57 441.12 292.47 449.04 296.46 456.87 294.1 449.41 289.83 451.29 288.81 445.82 288.27 441.56 281.65 454.3 279.68 453.11 284.65 462.53 290.16 469.37 289.19 471.29 280.93 482.26 279.89 494.83 271.33 508.1 266.94 517.05 268.44 516.82 265.77 520.49 265.82 517.77 260.33 520.23 256.72 537.39 257.9 565.15 276.37 578.34 284.15 576.89 290.21 567.04 297.7 559.17 299.96 554.78 305.12 545.71 307.56 507.79 308.98 502 311.15 493.78 302.06 483.17 302.21 483.07 300.1 476.31 299.85 475.48 301.71 474.92 300.33 456.4 302.7 458.69 305.75 447.57 308.19 445.04 311.09 447.85 315.08 446 319.83 439.99 322.53 438.5 329.2 407.28 303.78 Z" stroke="yellow" fill="black" stroke-width="1" id="relation/2642957"/>
<path d="M 345.32 128.48 358.12 123.53 372.74 123.46 380.13 121.09 404.14 136.82 400.79 138.81 405.27 142.16 400.63 145.21 407.11 149.68 379.37 164.74 375.79 162.35 372.1 165.37 362.15 164.76 355.01 173.27 351.11 174.09 347.39 165.07 336.75 162.24 339.91 154.78 338.4 136.17 345.32 128.48 Z" stroke="yellow" fill="black" stroke-width="1" id="relation/2642959"/>
<path d="M 520.23 256.72 517.77 260.33 520.49 265.82 516.82 265.77 517.05 268.44 508.1 266.94 494.83 271.33 482.26 279.89 471.29 280.93 469.37 289.19 462.53 290.16 453.11 284.65 454.3 279.68 441.56 281.65 445.82 288.27 451.29 288.81 449.41 289.83 456.87 294.1 449.04 296.46 441.12 292.47 408.43 286.57 401.46 283.31 398.81 278.64 414.88 275.13 409.22 269.01 422.12 259.4 427.43 259.91 445.18 249.63 460.38 250.02 460.95 253.5 473.81 256.64 481.12 248.93 487.24 247.24 501.17 254.06 520.23 256.72 Z" stroke="yellow" fill="black" stroke-width="1" id="relation/2642960"/>
<path d="M 336.75 162.24 324.92 175.74 303.39 175.38 295.1 172.5 283.5 175.02 266.23 168.91 244.94 172.71 217.75 167.84 198.6 168.5 200.4 164.26 217.75 160.28 205.24 156.17 204.62 149.75 226.07 148.46 208.9 132.69 225.1 125.6 240.55 128.19 254.73 123.44 264.62 126.01 262.58 132.32 274.07 135.85 293.28 136.96 301.67 130.68 287.31 132.73 275.78 130.35 275.1 127.12 290.84 116.61 318.47 110.71 345.32 128.48 338.4 136.17 339.91 154.78 336.75 162.24 Z" stroke="yellow" fill="black" stroke-width="1" id="relation/2642962"/>
<path d="M 424.88 151.17 467.5 139.15 498.79 133.03 499.04 131.21 490.96 131.7 492 128.89 499.5 127.54 503.48 105.59 496.87 100.03 503.48 97.51 506.49 99.07 516.95 94.63 522.41 96.11 533.28 95.97 586.99 122.46 545.2 160.78 538.92 176 541.39 186.01 549.68 195.77 545.47 198.75 526.86 192.2 453.52 166.43 424.88 151.17 Z" stroke="yellow" fill="black" stroke-width="1" id="relation/2642963"/>
<path d="M 460.38 250.02 468.13 241.76 460.05 243.87 424.61 230.63 418.36 229.58 410.74 237.98 411.68 243.16 404.82 244.19 402.46 240.63 389.28 235.3 379.18 240 382.75 229.47 372.04 228.07 360.43 233.53 350.23 234.98 334.49 230.48 332.85 227.61 333.2 209.11 322.78 193.3 322.9 185 319 187.16 324.92 175.74 336.75 162.24 347.39 165.07 351.11 174.09 355.01 173.27 362.15 164.76 372.1 165.37 375.79 162.35 379.37 164.74 407.11 149.68 400.63 145.21 409.38 144.23 421.05 152.27 424.88 151.17 453.52 166.43 526.86 192.2 533.07 200.16 529.85 202.23 540.32 208.14 537.2 210.54 541.76 213.24 536.29 215.74 514.08 210.76 519.6 215.41 503.73 218.98 500.39 231.69 487.24 247.24 481.12 248.93 473.81 256.64 460.95 253.5 460.38 250.02 Z" stroke="yellow" fill="black" stroke-width="1" id="relation/2642964"/>
<path d="M 380.13 121.09 368.99 112.82 403.3 98.11 422.83 107.33 438.55 119.9 453.6 125.99 467.5 139.15 424.88 151.17 421.05 152.27 409.38 144.23 400.63 145.21 405.27 142.16 400.79 138.81 404.14 136.82 380.13 121.09 Z" stroke="yellow" fill="black" stroke-width="1" id="relation/2642967"/>
<path d="M 522.41 96.11 516.95 94.63 506.49 99.07 503.48 97.51 496.87 100.03 503.48 105.59 499.5 127.54 492 128.89 490.96 131.7 499.04 131.21 498.79 133.03 467.5 139.15 453.6 125.99 438.55 119.9 422.83 107.33 403.3 98.11 402.3 93.04 405.74 91.6 412.83 96.49 491.19 65.23 503.89 70.05 524.91 84.88 522.41 96.11 Z" stroke="yellow" fill="black" stroke-width="1" id="relation/2642968"/>
<path d="M 740.06 269.63 737.51 274.52 740.92 275.67 730.45 288.09 737.46 304.74 715.31 312.88 715.55 317.37 700.94 321.02 701.3 326.52 688.57 327.56 686.05 335.43 673.56 334.05 667.3 341.04 655.9 338.09 645.88 343.87 640.01 340.99 634.16 342.88 636.9 334.61 623.6 337.67 621.07 333.84 623.49 330.54 617.52 335.64 615.84 332.45 603.41 330.44 606.18 318.6 601.82 318.04 595.69 324.06 590.83 324.72 594.36 318.83 589.91 319.91 594.32 314.37 574.13 307.98 586.88 301.23 581.24 302.44 582.39 290.67 576.89 290.21 578.34 284.15 565.15 276.37 575.38 269.36 584.58 256.8 593.56 252.78 595.58 246.65 597.92 248.28 607.1 243.94 606.09 241.83 620.12 237.99 627.66 251.15 649.35 255.38 650.8 253.51 650.69 255.26 659.88 255.02 679.25 250.96 683.31 240.77 694.28 245.35 740.06 269.63 Z" stroke="yellow" fill="black" stroke-width="1" id="relation/2642969"/>
</g>
<g id="points" font-family="sans-serif" font-size="12" text-anchor="middle">
<g transform="translate(305.7 196.1)" id="node/2905306265">
<circle cx="0" cy="0" r="1.5" fill="white"/>
<text y="5" x="0" font-size="3" fill="white">Brętowo</text>
</g>
<g transform="translate(761.2 260.9)" id="node/2905317097">
<circle cx="0" cy="0" r="1.5" fill="white"/>
<text y="5" x="0" font-size="3" fill="white">Przeróbka</text>
</g>
<g transform="translate(547.2 225.9)" id="node/2905330775">
<circle cx="0" cy="0" r="1.5" fill="white"/>
<text y="5" x="0" font-size="3" fill="white">Aniołki</text>
</g>
<g transform="translate(554.8 75.5)" id="node/2905330776">
<circle cx="0" cy="0" r="1.5" fill="white"/>
<text y="5" x="0" font-size="3" fill="white">Brzeźno</text>
</g>
<g transform="translate(559 184.3)" id="node/2905330779">
<circle cx="0" cy="0" r="1.5" fill="white"/>
<text y="5" x="0" font-size="3" fill="white">Młyniska</text>
</g>
<g transform="translate(365.7 145.8)" id="node/2905330782">
<circle cx="0" cy="0" r="1.5" fill="white"/>
<text y="5" x="0" font-size="3" fill="white">Strzyża</text>
</g>
<g transform="translate(461.7 181.8)" id="node/2905330784">
<circle cx="0" cy="0" r="1.5" fill="white"/>
<text y="5" x="0" font-size="3" fill="white">Wrzeszcz Górny</text>
</g>
<g transform="translate(461 268.1)" id="node/2905343304">
<circle cx="0" cy="0" r="1.5" fill="white"/>
<text y="5" x="0" font-size="3" fill="white">Suchanino</text>
</g>
<g transform="translate(263.3 59.9)" id="node/2906217575">
<circle cx="0" cy="0" r="1.5" fill="white"/>
<text y="5" x="0" font-size="3" fill="white">Oliwa</text>
</g>
<g transform="translate(366.9 58.4)" id="node/2906217576">
<circle cx="0" cy="0" r="1.5" fill="white"/>
<text y="5" x="0" font-size="3" fill="white">Przymorze Małe</text>
</g>
<g transform="translate(319.6 141.4)" id="node/2908238053">
<circle cx="0" cy="0" r="1.5" fill="white"/>
<text y="5" x="0" font-size="3" fill="white">VII Dwór</text>
</g>
<g transform="translate(422.6 125.9)" id="node/2911352904">
<circle cx="0" cy="0" r="1.5" fill="white"/>
<text y="5" x="0" font-size="3" fill="white">Zaspa-Młyniec</text>
</g>
<g transform="translate(646.2 290.1)" id="node/3009670215">
<circle cx="0" cy="0" r="1.5" fill="white"/>
<text y="5" x="0" font-size="3" fill="white">Śródmieście</text>
</g>
<g transform="translate(355.3 260.1)" id="node/4569227409">
<circle cx="0" cy="0" r="1.5" fill="white"/>
<text y="5" x="0" font-size="3" fill="white">Piecki-Migowo</text>
</g>
<g transform="translate(426 57.1)" id="node/4569252042">
<circle cx="0" cy="0" r="1.5" fill="white"/>
<text y="5" x="0" font-size="3" fill="white">Przymorze Wielkie</text>
</g>
<g transform="translate(492.2 161.2)" id="node/4569274473">
<circle cx="0" cy="0" r="1.5" fill="white"/>
<text y="5" x="0" font-size="3" fill="white">Wrzeszcz Dolny</text>
</g>
<g transform="translate(462.1 98.9)" id="node/4569270544">
<circle cx="0" cy="0" r="1.5" fill="white"/>
<text y="5" x="0" font-size="3" fill="white">Zaspa-Rozstaje</text>
</g>
<g transform="translate(470.7 173.5)" id="lang">
<circle cx="0" cy="0" r="1.5" fill="white"/>
<text y="5" x="0" font-size="3" fill="white">LangFuhr</text>
</g>
<g transform="translate(627.7 289.4)" id="jozefk">
<circle cx="0" cy="0" r="1.5" fill="white"/>
<text y="5" x="0" font-size="3" fill="white">Józef K</text>
</g>
</g>
</svg>