<?xml version="1.0"?>
<svg xmlns="http://www.w3.org/2000/svg" version="1.2" baseProfile="tiny" width="1200" height="517" viewBox="0 0 1200 517" stroke-linecap="round" stroke-linejoin="round">
<g id="poly">
<path d="M 1041.78 367.83 1025.32 360.95 1019.22 376.26 990.15 382.35 976.35 382.71 976.52 380.07 974.34 382.88 941.77 376.54 930.45 356.78 909.39 362.55 868.72 322.71 854.86 321.35 818.39 297.87 824.71 293.4 812.27 278.75 808.55 263.72 817.98 240.87 841.75 248.55 837.53 251.49 843.52 255.01 841.47 261.14 858.31 266.43 867.75 261.26 872.22 263.12 872.55 274.25 899.38 286.64 911.99 268.44 932.41 255.56 997.67 240.25 1016.66 246.5 1017.07 274.3 1041.7 331.41 1047.04 333.92 1041.78 367.83 Z" stroke="yellow" fill="black" stroke-width="2" id="relation/1763725"/>
<path d="M 1041.78 367.83 1047.04 333.92 1041.7 331.41 1017.07 274.3 1016.66 246.5 997.67 240.25 1078.53 175.72 1110.3 152.36 1117.78 139.22 1113.2 128.3 1102.43 123.76 1042.54 115.7 1021.1 108.25 1002.13 85.61 1001.15 67.21 1006.36 61.68 995.16 42.8 1009.68 60.27 1117.12 96.02 1150.75 114.07 1134.67 119.41 1147.97 139.88 1168.38 158.97 1163.87 199.01 1113.33 271.94 1189.88 377.95 1185.37 380.69 1189.38 380.29 1199 392.95 1174.92 404.66 1153.43 410.1 1126.71 409.01 1110.51 404.28 1041.78 367.83 Z" stroke="yellow" fill="black" stroke-width="2" id="relation/1763762"/>
<path d="M 909.39 362.55 910.91 365.71 897.13 372.24 893.62 369.78 890.59 378.99 877.1 385.02 863.29 403.87 847.93 414.4 806.25 386.67 780.49 384.89 751.88 380.91 730.97 370.67 750.71 347.32 755.72 328.24 779.56 322.88 771.26 315.9 804.6 323.38 812.82 319.62 805.97 315.57 810.65 311.97 794.93 303.1 799.77 299.99 790.46 288.05 818.39 297.87 854.86 321.35 868.72 322.71 909.39 362.55 Z" stroke="yellow" fill="black" stroke-width="2" id="relation/2642940"/>
<path d="M 944.52 119.73 930.82 127.12 880.71 183.35 800.08 143.57 783.76 143.78 787.53 126.93 755.96 104.67 736.9 97.43 788.88 62.91 753.76 48.73 758.88 42.43 806.72 63.05 866.59 82.33 898.49 89.24 941.81 91.7 937.96 103.14 921.33 107.69 944.52 119.73 Z" stroke="yellow" fill="black" stroke-width="2" id="relation/2642941"/>
<path d="M 356.84 413.19 358.25 405.59 321.51 389.07 319.16 382.64 302.63 373.27 303.46 367.5 290.22 355.18 279.34 354.77 249.15 363.44 204.08 325.61 211.94 321.16 222.98 320.69 214.28 301.31 200.1 301.13 207.41 279.68 234.26 279.89 234.05 265.56 269.92 264.31 267.54 258.83 297.64 252.47 326.4 251.47 367.22 258.78 399.18 253.07 425.11 262.24 442.51 258.46 454.96 262.78 487.28 263.33 478.4 280.47 484.26 277.22 484.08 289.7 499.72 313.42 499.2 341.2 493.64 350.2 497.21 355.85 487.96 360.32 484.07 389.37 469.79 390.97 469.66 395.3 446.56 388.6 396.05 399.6 356.84 413.19 Z" stroke="yellow" fill="black" stroke-width="2" id="relation/2642942"/>
<path d="M 1078.53 175.72 997.67 240.25 932.41 255.56 911.99 268.44 899.38 286.64 872.55 274.25 872.22 263.12 867.75 261.26 858.31 266.43 841.47 261.14 843.52 255.01 837.53 251.49 841.75 248.55 817.98 240.87 880.71 183.35 930.82 127.12 944.52 119.73 957.08 117.89 963.16 121.4 957.52 122.02 953.27 133.84 984.64 140.55 993.38 175.95 989.7 178.61 1006.73 186.75 1012.74 187.33 1053.33 172.08 1078.53 175.72 Z" stroke="yellow" fill="black" stroke-width="2" id="relation/2642947"/>
<path d="M 234.05 265.56 193.18 265.03 185.97 254.58 142.74 257.25 129.65 262.84 11.76 189.8 13.05 183.61 1 176.13 24.61 166.95 25.69 156.99 64.3 147.97 69.52 142.19 66.56 132.37 73.04 132.82 77.49 128.17 69.63 99.83 110.94 101.51 113.48 104.45 114.75 98.78 124.07 97.89 124.55 84.02 137.87 73.98 134.02 56.72 150.67 49.59 118.32 45.61 126.02 32.39 129.44 11.63 116.03 9.72 143.75 11.99 159.83 16.42 223.86 4.24 300.52 13.79 321.09 8.23 341.78 8.68 398.16 24.94 409.24 5.48 424.28 9.37 432.63 1 457.99 1.17 475.07 50.76 492.37 105.93 514.49 137.66 553.45 168.87 570.17 181.28 559.07 184.84 537.13 184.95 517.91 192.39 477.6 165.7 436.12 174.55 412.5 190.34 413.51 195.18 430.82 198.75 452.38 195.69 439.79 205.11 410.95 203.44 393.7 198.15 396.76 188.67 381.91 184.82 360.62 191.95 337.43 188.06 313.11 198.7 338.89 222.38 306.68 224.31 307.62 233.95 326.4 240.12 300.34 246.09 297.64 252.47 267.54 258.83 269.92 264.31 234.05 265.56 Z" stroke="yellow" fill="black" stroke-width="2" id="relation/2642950"/>
<path d="M 598.21 417.8 594.06 413.03 587.27 414.34 601.28 428.05 588.7 441.3 610.93 455.55 608.23 460.34 590.44 462.09 569.29 448.61 547.46 457.54 537.02 457.9 537.5 450.73 524.46 451.07 517.85 456.1 498.69 460.51 496.04 457.59 494.65 461.46 465.65 452.04 462.06 462.33 423.94 461.34 416.09 456.08 392.33 452.43 370.82 436.34 371.19 429.77 361.8 424.11 356.84 413.19 396.05 399.6 446.56 388.6 469.66 395.3 469.79 390.97 484.07 389.37 487.96 360.32 497.21 355.85 493.64 350.2 499.2 341.2 501.65 345.5 525.29 352.26 540.59 350.08 558.02 341.88 574.11 343.99 568.75 359.79 583.91 352.75 603.7 360.75 607.24 366.08 617.54 364.55 616.12 356.77 627.56 344.16 636.95 345.73 690.15 365.61 702.28 362.44 690.65 374.85 667.83 374.25 641.18 389.7 633.21 388.93 613.85 403.35 622.34 412.53 598.21 417.8 Z" stroke="yellow" fill="black" stroke-width="2" id="relation/2642954"/>
<path d="M 578.67 46.39 587.74 87.16 578.2 86.41 603.46 139.17 604.96 146.78 553.45 168.87 514.49 137.66 492.37 105.93 475.07 50.76 504.54 41.62 508.76 44.01 555.15 39.06 560.74 31.75 566.73 32.67 578.67 46.39 Z" stroke="yellow" fill="black" stroke-width="2" id="relation/2642955"/>
<path d="M 603.46 139.17 578.2 86.41 587.74 87.16 578.67 46.39 635.33 32.43 647.76 23.87 679.6 38.5 705.33 18.85 758.88 42.43 753.76 48.73 788.88 62.91 736.9 97.43 619.26 144.35 608.62 137.01 603.46 139.17 Z" stroke="yellow" fill="black" stroke-width="2" id="relation/2642956"/>
<path d="M 610.93 455.55 588.7 441.3 601.28 428.05 587.27 414.34 594.06 413.03 598.21 417.8 602.19 424.81 612.66 429.72 661.73 438.56 673.62 444.56 685.37 441.01 674.17 434.6 677 433.07 668.79 432.27 662.4 422.33 681.51 419.36 679.74 426.82 693.87 435.1 704.15 433.64 707.02 421.25 723.49 419.68 742.37 406.84 762.28 400.24 775.73 402.49 775.38 398.48 780.88 398.56 776.8 390.31 780.49 384.89 806.25 386.67 847.93 414.4 867.73 426.08 865.56 435.17 850.78 446.43 838.96 449.82 832.36 457.56 818.74 461.22 761.83 463.35 753.14 466.61 740.79 452.96 724.85 453.19 724.71 450.03 714.55 449.65 713.32 452.45 712.47 450.36 684.66 453.93 688.11 458.5 671.41 462.17 667.61 466.52 671.84 472.51 669.06 479.65 660.04 483.7 657.79 493.71 610.93 455.55 Z" stroke="yellow" fill="black" stroke-width="2" id="relation/2642957"/>
<path d="M 517.91 192.39 537.13 184.95 559.07 184.84 570.17 181.28 606.22 204.91 601.18 207.88 607.91 212.92 600.95 217.5 610.67 224.2 569.03 246.81 563.66 243.23 558.11 247.77 543.17 246.84 532.46 259.63 526.6 260.85 521.03 247.31 505.04 243.05 509.79 231.87 507.52 203.92 517.91 192.39 Z" stroke="yellow" fill="black" stroke-width="2" id="relation/2642959"/>
<path d="M 780.49 384.89 776.8 390.31 780.88 398.56 775.38 398.48 775.73 402.49 762.28 400.24 742.37 406.84 723.49 419.68 707.02 421.25 704.15 433.64 693.87 435.1 679.74 426.82 681.51 419.36 662.4 422.33 668.79 432.27 677 433.07 674.17 434.6 685.37 441.01 673.62 444.56 661.73 438.56 612.66 429.72 602.19 424.81 598.21 417.8 622.34 412.53 613.85 403.35 633.21 388.93 641.18 389.7 667.83 374.25 690.65 374.85 691.5 380.07 710.81 384.79 721.78 373.2 730.97 370.67 751.88 380.91 780.49 384.89 Z" stroke="yellow" fill="black" stroke-width="2" id="relation/2642960"/>
<path d="M 505.04 243.05 487.28 263.33 454.96 262.78 442.51 258.46 425.11 262.24 399.18 253.07 367.22 258.78 326.4 251.47 297.64 252.47 300.34 246.09 326.4 240.12 307.62 233.95 306.68 224.31 338.89 222.38 313.11 198.7 337.43 188.06 360.62 191.95 381.91 184.82 396.76 188.67 393.7 198.15 410.95 203.44 439.79 205.11 452.38 195.69 430.82 198.75 413.51 195.18 412.5 190.34 436.12 174.55 477.6 165.7 517.91 192.39 507.52 203.92 509.79 231.87 505.04 243.05 Z" stroke="yellow" fill="black" stroke-width="2" id="relation/2642962"/>
<path d="M 637.36 226.45 701.33 208.39 748.31 199.21 748.68 196.47 736.55 197.22 738.12 192.99 749.38 190.97 755.35 158.01 745.43 149.67 755.35 145.89 759.86 148.22 775.57 141.56 783.76 143.78 800.08 143.57 880.71 183.35 817.98 240.87 808.55 263.72 812.27 278.75 824.71 293.4 818.39 297.87 790.46 288.05 680.34 249.35 637.36 226.45 Z" stroke="yellow" fill="black" stroke-width="2" id="relation/2642963"/>
<path d="M 690.65 374.85 702.28 362.44 690.15 365.61 636.95 345.73 627.56 344.16 616.12 356.77 617.54 364.55 607.24 366.08 603.7 360.75 583.91 352.75 568.75 359.79 574.11 343.99 558.02 341.88 540.59 350.08 525.29 352.26 501.65 345.5 499.2 341.2 499.72 313.42 484.08 289.7 484.26 277.22 478.4 280.47 487.28 263.33 505.04 243.05 521.03 247.31 526.6 260.85 532.46 259.63 543.17 246.84 558.11 247.77 563.66 243.23 569.03 246.81 610.67 224.2 600.95 217.5 614.08 216.02 631.6 228.1 637.36 226.45 680.34 249.35 790.46 288.05 799.77 299.99 794.93 303.1 810.65 311.97 805.97 315.57 812.82 319.62 804.6 323.38 771.26 315.9 779.56 322.88 755.72 328.24 750.71 347.32 730.97 370.67 721.78 373.2 710.81 384.79 691.5 380.07 690.65 374.85 Z" stroke="yellow" fill="black" stroke-width="2" id="relation/2642964"/>
<path d="M 570.17 181.28 553.45 168.87 604.96 146.78 634.27 160.63 657.88 179.5 680.46 188.64 701.33 208.39 637.36 226.45 631.6 228.1 614.08 216.02 600.95 217.5 607.91 212.92 601.18 207.88 606.22 204.91 570.17 181.28 Z" stroke="yellow" fill="black" stroke-width="2" id="relation/2642967"/>
<path d="M 783.76 143.78 775.57 141.56 759.86 148.22 755.35 145.89 745.43 149.67 755.35 158.01 749.38 190.97 738.12 192.99 736.55 197.22 748.68 196.47 748.31 199.21 701.33 208.39 680.46 188.64 657.88 179.5 634.27 160.63 604.96 146.78 603.46 139.17 608.62 137.01 619.26 144.35 736.9 97.43 755.96 104.67 787.53 126.93 783.76 143.78 Z" stroke="yellow" fill="black" stroke-width="2" id="relation/2642968"/>
<path d="M 1110.51 404.28 1106.68 411.62 1111.81 413.35 1096.09 432 1106.61 456.99 1073.36 469.21 1073.72 475.96 1051.79 481.43 1052.33 489.69 1033.22 491.24 1029.43 503.06 1010.68 500.99 1001.28 511.49 984.17 507.05 969.13 515.73 960.32 511.41 951.53 514.25 955.65 501.84 935.69 506.43 931.89 500.68 935.51 495.72 926.56 503.38 924.03 498.6 905.37 495.57 909.53 477.79 902.98 476.96 893.78 486 886.49 486.99 891.78 478.15 885.1 479.76 891.72 471.45 861.42 461.86 880.55 451.72 872.09 453.54 873.81 435.86 865.56 435.17 867.73 426.08 847.93 414.4 863.29 403.87 877.1 385.02 890.59 378.99 893.62 369.78 897.13 372.24 910.91 365.71 909.39 362.55 930.45 356.78 941.77 376.54 974.34 382.88 976.52 380.07 976.35 382.71 990.15 382.35 1019.22 376.26 1025.32 360.95 1041.78 367.83 1110.51 404.28 Z" stroke="yellow" fill="black" stroke-width="2" id="relation/2642969"/>
</g>
<g id="points" font-family="sans-serif" font-size="5" text-anchor="middle">
<g transform="translate(458.5 293.9)" id="node/2905306265">
<circle cx="0" cy="0" r="3" fill="white"/>
<text y="20" x="0" fill="white">Brętowo</text>
</g>
<g transform="translate(1142.3 391.1)" id="node/2905317097">
<circle cx="0" cy="0" r="3" fill="white"/>
<text y="20" x="0" fill="white">Przeróbka</text>
</g>
<g transform="translate(821 338.7)" id="node/2905330775">
<circle cx="0" cy="0" r="3" fill="white"/>
<text y="20" x="0" fill="white">Aniołki</text>
</g>
<g transform="translate(832.3 112.8)" id="node/2905330776">
<circle cx="0" cy="0" r="3" fill="white"/>
<text y="20" x="0" fill="white">Brzeźno</text>
</g>
<g transform="translate(838.7 276.2)" id="node/2905330779">
<circle cx="0" cy="0" r="3" fill="white"/>
<text y="20" x="0" fill="white">Młyniska</text>
</g>
<g transform="translate(548.5 218.3)" id="node/2905330782">
<circle cx="0" cy="0" r="3" fill="white"/>
<text y="20" x="0" fill="white">Strzyża</text>
</g>
<g transform="translate(692.6 272.4)" id="node/2905330784">
<circle cx="0" cy="0" r="3" fill="white"/>
<text y="20" x="0" fill="white">Wrzeszcz Górny</text>
</g>
<g transform="translate(691.5 402)" id="node/2905343304">
<circle cx="0" cy="0" r="3" fill="white"/>
<text y="20" x="0" fill="white">Suchanino</text>
</g>
<g transform="translate(394.7 89.5)" id="node/2906217575">
<circle cx="0" cy="0" r="3" fill="white"/>
<text y="20" x="0" fill="white">Oliwa</text>
</g>
<g transform="translate(550.2 87.2)" id="node/2906217576">
<circle cx="0" cy="0" r="3" fill="white"/>
<text y="20" x="0" fill="white">Przymorze Małe</text>
</g>
<g transform="translate(479.4 211.8)" id="node/2908238053">
<circle cx="0" cy="0" r="3" fill="white"/>
<text y="20" x="0" fill="white">VII Dwór</text>
</g>
<g transform="translate(634 188.6)" id="node/2911352904">
<circle cx="0" cy="0" r="3" fill="white"/>
<text y="20" x="0" fill="white">Zaspa-Młyniec</text>
</g>
<g transform="translate(969.6 435)" id="node/3009670215">
<circle cx="0" cy="0" r="3" fill="white"/>
<text y="20" x="0" fill="white">Śródmieście</text>
</g>
<g transform="translate(532.9 390)" id="node/4569227409">
<circle cx="0" cy="0" r="3" fill="white"/>
<text y="20" x="0" fill="white">Piecki-Migowo</text>
</g>
<g transform="translate(639 85.2)" id="node/4569252042">
<circle cx="0" cy="0" r="3" fill="white"/>
<text y="20" x="0" fill="white">Przymorze Wielkie</text>
</g>
<g transform="translate(738.4 241.5)" id="node/4569274473">
<circle cx="0" cy="0" r="3" fill="white"/>
<text y="20" x="0" fill="white">Wrzeszcz Dolny</text>
</g>
<g transform="translate(693.2 148)" id="node/4569270544">
<circle cx="0" cy="0" r="3" fill="white"/>
<text y="20" x="0" fill="white">Zaspa-Rozstaje</text>
</g>
</g>
</svg>